HIERARCHY
ROOT Hips
{
    OFFSET 0.0 0.0 0.0
    CHANNELS 6 Xposition Yposition Zposition Zrotation Xrotation Yrotation
    JOINT LeftHipJoint
    {
        OFFSET 0.1 0.0 0.0
        CHANNELS 3 Zrotation Xrotation Yrotation
        JOINT LeftUpLeg
        {
            OFFSET 125.05498929282243 0.0 0.0
            CHANNELS 3 Zrotation Xrotation Yrotation
            JOINT LeftLeg
            {
                OFFSET 0.0 0.0 -420.52248484113414
                CHANNELS 3 Zrotation Xrotation Yrotation
                JOINT LeftFoot
                {
                    OFFSET 0.0 0.0 -403.2806810119385
                    CHANNELS 3 Zrotation Xrotation Yrotation
                    End Site
                    {
                        OFFSET 0.0 -0.1 0.0
                    }
                }
            }
        }
    }
    JOINT LowerBack
    {
        OFFSET 0.0 0.0 0.1
        CHANNELS 3 Zrotation Xrotation Yrotation
        JOINT Spine
        {
            OFFSET 0.0 0.0 217.6024632797682
            CHANNELS 3 Zrotation Xrotation Yrotation
            JOINT Spine1
            {
                OFFSET 0.0 0.0 251.46159938192164
                CHANNELS 3 Zrotation Xrotation Yrotation
                JOINT LeftShoulder
                {
                    OFFSET 0.1 0.0 0.0
                    CHANNELS 3 Zrotation Xrotation Yrotation
                    JOINT LeftArm
                    {
                        OFFSET 137.66002775491023 0.0 0.0
                        CHANNELS 3 Zrotation Xrotation Yrotation
                        JOINT LeftForeArm
                        {
                            OFFSET 263.32451024557025 0.0 0.0
                            CHANNELS 3 Zrotation Xrotation Yrotation
                            JOINT LeftHand
                            {
                                OFFSET 243.32835399118045 0.0 0.0
                                CHANNELS 3 Zrotation Xrotation Yrotation
                                End Site
                                {
                                    OFFSET 0.1 0.0 0.0
                                }
                            }
                        }
                    }
                }
                JOINT Neck
                {
                    OFFSET 0.0 0.0 0.1
                    CHANNELS 3 Zrotation Xrotation Yrotation
                    JOINT Neck1
                    {
                        OFFSET 0.0 0.0 103.36722239803215
                        CHANNELS 3 Zrotation Xrotation Yrotation
                        End Site
                        {
                            OFFSET 0.0 0.0 114.13622282503478
                        }
                    }
                }
                JOINT RightShoulder
                {
                    OFFSET -0.1 0.0 0.0
                    CHANNELS 3 Zrotation Xrotation Yrotation
                    JOINT RightArm
                    {
                        OFFSET -137.66002775491023 0.0 0.0
                        CHANNELS 3 Zrotation Xrotation Yrotation
                        JOINT RightForeArm
                        {
                            OFFSET -263.32451024557025 0.0 0.0
                            CHANNELS 3 Zrotation Xrotation Yrotation
                            JOINT RightHand
                            {
                                OFFSET -243.32835399118045 0.0 0.0
                                CHANNELS 3 Zrotation Xrotation Yrotation
                                End Site
                                {
                                    OFFSET -0.1 0.0 0.0
                                }
                            }
                        }
                    }
                }
            }
        }
    }
    JOINT RightHipJoint
    {
        OFFSET -0.1 0.0 0.0
        CHANNELS 3 Zrotation Xrotation Yrotation
        JOINT RightUpLeg
        {
            OFFSET -125.05498929282243 0.0 0.0
            CHANNELS 3 Zrotation Xrotation Yrotation
            JOINT RightLeg
            {
                OFFSET 0.0 0.0 -420.52248484113414
                CHANNELS 3 Zrotation Xrotation Yrotation
                JOINT RightFoot
                {
                    OFFSET 0.0 0.0 -403.2806810119385
                    CHANNELS 3 Zrotation Xrotation Yrotation
                    End Site
                    {
                        OFFSET 0.0 -0.1 0.0
                    }
                }
            }
        }
    }
}
MOTION
Frames: 5
Frame Time: 0.03333333333333333
0.0 0.0 824.0573981545823 23.535404833280033 0.6825221793654974 5.6778032026770955 0.0 0.0 1.6151254241806922e-16 -0.9579690436711317 -9.239970028411756 -3.323279762447565 0.8731681332703988 18.425141823529877 2.563372091665285 -8.276074308844047e-33 -1.5902773407317584e-15 -5.963540027744094e-16 0.0 0.0 1.6151254241806922e-16 0.2505443724254087 2.436425712382978 0.16689799605656105 -3.7576378985894947 4.7250385386965544e-17 -1.4404140632926732e-15 0.0 0.0 -3.4787316828507215e-16 -13.038469028915406 -43.849428514512226 42.66080575206362 -135.60180098914637 9.375809637047425e-15 -1.0696389824863276e-14 0.0 0.0 0.0 0.0 0.0 -3.4787316828507215e-16 7.33092309099174 3.0029205236144576 -6.049205933421375 0.0 0.0 -3.4787316828507215e-16 18.47334280328044 16.37616393716917 -81.58527112707291 32.59461504433685 -1.3996085360024478e-14 -2.5353808846992508e-15 0.0 0.0 0.0 0.0 0.0 1.6151254241806922e-16 -1.4059998612939382 -13.426371646059652 -5.659731774330874 0.1868278058915217 26.40487031199404 -0.11545281823076164 0.0 0.0 0.0
0.0 0.0 824.0573981545823 23.44651422002557 0.7159923410262395 5.750460461839377 0.0 0.0 -2.981770013872047e-16 -0.9590314450540498 -9.204378411854721 -3.3890508039397123 0.8576778282717483 18.35966534356901 2.5684407340582984 0.0 0.0 -1.987846675914698e-16 0.0 0.0 -2.981770013872047e-16 0.25616947082912456 2.478560468492762 0.09716131946966838 -3.7998764768996836 3.6934103255336685e-16 8.575514446403076e-16 0.0 0.0 4.969616689786745e-17 -13.052257908899712 -43.7709611698364 42.51099608468244 -135.563167872097 3.483411738920642e-15 -8.294170682556866e-15 3.1805546814635168e-15 0.0 0.0 0.0 0.0 4.969616689786745e-17 7.423914056179366 2.952671057676558 -6.046299640593003 0.0 0.0 4.969616689786745e-17 18.10279821171949 16.444085527881356 -81.52359453596934 32.79506735040123 -8.795991719394652e-15 -7.357825408058697e-15 0.0 0.0 7.951386703658792e-16 0.0 0.0 -2.981770013872047e-16 -1.414625741435392 -13.440316475842911 -5.724282484725457 0.1692705548239469 26.310133112189074 -0.19227307544990363 0.0 0.0 -3.975693351829396e-16
0.0 0.0 824.0573981545823 23.41260373901696 0.9219616275142924 5.875308168293803 0.0 0.0 3.851452934584727e-16 -0.9845503758533717 -9.331354581697404 -3.559747981057939 0.8198747466448849 18.232127455324214 2.664192595677597 0.0 0.0 -1.987846675914698e-16 0.0 0.0 3.851452934584727e-16 0.25528123533467967 2.4398551461032394 0.03933879607255243 -3.833532726064334 1.9202456294879833e-16 2.0532232066491284e-16 0.0 0.0 9.93923337957349e-17 -13.33920806441476 -43.83891817769776 42.20313514442277 -135.1916941626142 -9.337468823337757e-15 1.072987593631843e-14 0.0 0.0 0.0 0.0 0.0 9.93923337957349e-17 7.3416897523027345 2.751380558192675 -6.121263472984832 0.0 0.0 9.93923337957349e-17 17.97109217129946 16.289518825110264 -81.52266344123561 32.94492977112838 -3.607442673297915e-15 -1.2200049453479322e-14 0.0 0.0 -2.3854160110976376e-15 0.0 0.0 3.851452934584727e-16 -1.4618880261365896 -13.709487395271262 -5.877589656788523 0.13355600155187144 26.279455380778717 -0.16073664413866748 0.0 1.5902773407317584e-15 0.0
0.0 0.0 824.0573981545823 23.34856562520813 1.1694110591856828 6.019403675333011 0.0 0.0 -3.2923710569837183e-16 -1.0127093100622089 -9.460678814637454 -3.7016156442888053 0.7933704112940353 18.047817774988744 2.654329688443362 0.0 0.0 7.951386703658791e-16 0.0 0.0 -3.2923710569837183e-16 0.2573263110814489 2.424877802584315 -0.04680021149250659 -4.0318222756166096 5.837477732372272e-16 3.686358298895176e-16 -3.4483642953516864e-34 -3.975693351829396e-16 -9.93923337957349e-17 -13.447441765965262 -43.93496501842507 41.90873930515116 -134.82944454137075 -8.3163045999642e-15 -3.430233586047782e-15 -3.1805546814635168e-15 0.0 0.0 -3.4483642953516864e-34 -3.975693351829396e-16 -9.93923337957349e-17 7.475833049188214 2.5617259178446106 -6.181891905120982 -3.4483642953516864e-34 -3.975693351829396e-16 -9.93923337957349e-17 17.666355393758312 16.232236565625627 -81.49392946478963 33.24106172844809 -8.233275065995733e-15 5.7768903837140524e-15 0.0 0.0 3.1805546814635176e-15 0.0 0.0 -3.2923710569837183e-16 -1.5268407349644104 -14.101621789634192 -6.063789667476279 0.0897076902184853 26.26295534325478 -0.10731016075805341 0.0 0.0 3.975693351829396e-16
0.0 0.0 824.0573981545823 23.280204595833165 1.3195954295924457 6.138407038076637 0.0 0.0 -2.4537482405822053e-16 -1.0320436117822702 -9.49700734407915 -3.7880422105840807 0.7934839219741243 18.002902259809815 2.6291454829422563 0.0 0.0 1.987846675914698e-16 0.0 0.0 -2.4537482405822053e-16 0.26388292750357595 2.4493987660068712 -0.1596941361667911 -4.105338340979752 -3.528135775450587e-16 -1.255847157694995e-15 0.0 1.9878466759146977e-16 0.0 -13.56553195351194 -44.02477371841571 41.80814857701364 -134.38974385369494 -5.86385167698189e-15 2.4655538601853004e-15 0.0 0.0 -6.3611093629270335e-15 0.0 1.9878466759146977e-16 0.0 7.588036248531455 2.3018077095016087 -6.30293082541749 0.0 1.9878466759146977e-16 0.0 17.300747860332365 16.09696515995691 -81.40151877152361 33.49248146084473 -6.387732145730273e-15 1.1886277108768538e-14 0.0 0.0 7.951386703658792e-16 0.0 0.0 -2.4537482405822053e-16 -1.5693449472906509 -14.269195888752577 -6.176774049753147 0.08309126341994709 26.35280725953014 -0.14942253077346035 0.0 0.0 0.0
